<?xml version="1.0"?>
<svg xmlns="http://www.w3.org/2000/svg" xmlns:xlink="http://www.w3.org/1999/xlink" xmlns:svgjs="http://svgjs.com/svgjs" version="1.1" width="512" height="512" x="0" y="0" viewBox="0 0 426.66667 426.66667" style="enable-background:new 0 0 512 512" xml:space="preserve" class=""><circle r="213.333335" cx="213.333335" cy="213.333335" fill="#f2f2f2" shape="circle" transform="matrix(1,0,0,1,0,0)"/><g transform="matrix(0.33999999999999997,0,0,0.34,140.8004296875,140.80042968749996)"><path xmlns="http://www.w3.org/2000/svg" d="m405.332031 192h-170.664062v-170.667969c0-11.773437-9.558594-21.332031-21.335938-21.332031-11.773437 0-21.332031 9.558594-21.332031 21.332031v170.667969h-170.667969c-11.773437 0-21.332031 9.558594-21.332031 21.332031 0 11.777344 9.558594 21.335938 21.332031 21.335938h170.667969v170.664062c0 11.777344 9.558594 21.335938 21.332031 21.335938 11.777344 0 21.335938-9.558594 21.335938-21.335938v-170.664062h170.664062c11.777344 0 21.335938-9.558594 21.335938-21.335938 0-11.773437-9.558594-21.332031-21.335938-21.332031zm0 0" fill="#000000" data-original="#000000" style="" class=""/></g></svg>
