<?xml version="1.0"?>
<svg xmlns="http://www.w3.org/2000/svg" xmlns:xlink="http://www.w3.org/1999/xlink" xmlns:svgjs="http://svgjs.com/svgjs" version="1.1" width="512" height="512" x="0" y="0" viewBox="0 0 512 512" style="enable-background:new 0 0 512 512" xml:space="preserve" class=""><circle r="256" cx="256" cy="256" fill="#f2f2f2" shape="circle"/><g transform="matrix(0.5,0,0,0.5,128.0004062652588,127.99991911649701)"><linearGradient xmlns="http://www.w3.org/2000/svg" id="linear-gradient" gradientUnits="userSpaceOnUse" x1="255.48" x2="255.48" y1="459" y2="139.848"><stop stop-opacity="1" stop-color="#a163f5" offset="0.322"/><stop stop-opacity="1" stop-color="#b074ee" offset="0.466"/><stop stop-opacity="1" stop-color="#7737a0" offset="0.752"/><stop stop-opacity="1" stop-color="#a46dbb" offset="0.898"/></linearGradient><linearGradient xmlns="http://www.w3.org/2000/svg" xmlns:xlink="http://www.w3.org/1999/xlink" id="linear-gradient-2" x1="236.954" x2="236.954" xlink:href="#linear-gradient" y1="459" y2="139.848"/><linearGradient xmlns="http://www.w3.org/2000/svg" xmlns:xlink="http://www.w3.org/1999/xlink" id="linear-gradient-3" x1="209.777" x2="209.777" xlink:href="#linear-gradient" y1="458.999" y2="139.848"/><linearGradient xmlns="http://www.w3.org/2000/svg" xmlns:xlink="http://www.w3.org/1999/xlink" id="linear-gradient-4" x1="256" x2="256" xlink:href="#linear-gradient" y1="459" y2="139.848"/><linearGradient xmlns="http://www.w3.org/2000/svg" xmlns:xlink="http://www.w3.org/1999/xlink" id="linear-gradient-5" x1="275.046" x2="275.046" xlink:href="#linear-gradient" y1="459" y2="139.848"/><linearGradient xmlns="http://www.w3.org/2000/svg" xmlns:xlink="http://www.w3.org/1999/xlink" id="linear-gradient-6" x1="302.223" x2="302.223" xlink:href="#linear-gradient" y1="458.999" y2="139.848"/><path xmlns="http://www.w3.org/2000/svg" d="m255.48 94.217a5 5 0 0 0 -5 5v65.183a5 5 0 0 0 10 0v-65.183a5 5 0 0 0 -5-5z" fill="url(#linear-gradient)" data-original="url(#linear-gradient)" style=""/><path xmlns="http://www.w3.org/2000/svg" d="m237.245 214.332a5 5 0 0 0 -3.636 6.065c.049.2 4.8 19.751-4.036 36.23a5 5 0 1 0 8.814 4.725c10.637-19.847 5.161-42.432 4.923-43.384a5.007 5.007 0 0 0 -6.065-3.636z" fill="url(#linear-gradient-2)" data-original="url(#linear-gradient-2)" style=""/><path xmlns="http://www.w3.org/2000/svg" d="m208.842 178.7a68.583 68.583 0 0 0 -10.525-1.4 5 5 0 1 0 -.4 9.992c6.279.253 16.8 2.361 19.451 6.08a5 5 0 1 0 8.148-5.8c-2.948-4.144-8.557-7.129-16.674-8.872z" fill="url(#linear-gradient-3)" data-original="url(#linear-gradient-3)" style=""/><path xmlns="http://www.w3.org/2000/svg" d="m440.576 240a5 5 0 0 0 7.1-4.708c-.625-18.407-16.992-39.614-34.124-56.892 8.326-64.2-.484-108.163-9.428-133.827-9.978-28.63-22.188-41.511-22.7-42.046a5.008 5.008 0 0 0 -8.5 2.45c-.058.274-6.2 27.677-39.6 51.7-8.68 6.242-18.093 13.335-26.158 19.512-4.924-2.944-11.714-5.36-20.268-7.2a127.593 127.593 0 0 0 -58.019 1.328c-8.464 2.157-15.182 4.746-20.055 7.716a84.974 84.974 0 0 0 -13.63-8.733c-30.47-14.67-56.294-65.054-56.551-65.561a5 5 0 0 0 -8.06-1.209c-.515.535-12.725 13.416-22.7 42.046-16.048 46.038-14.113 97.732-9.438 133.834-17.129 17.276-33.492 38.48-34.117 56.89a5 5 0 0 0 7.1 4.708l12.152-5.621c-11.5 17.275-26.8 46.139-24.919 75.306a5 5 0 0 0 9.614 1.579 80.815 80.815 0 0 1 3.864-7.991c-3.239 10.719-6.089 23.141-5.707 32.819a5 5 0 0 0 9.174 2.548 125.951 125.951 0 0 1 10.841-13.948c-.327 15.265 2.786 40.9 23.658 60.895 28.738 27.533 39.944 42.467 40.052 42.611a5 5 0 0 0 8.945-3.812l-.94-5.563c8.741 11.921 18.28 26.365 19.742 33.895.409 2.106 1.508 7.7 6.535 7.244 4.784-.435 5.292-5.561 5.7-9.68.279-2.821.52-6.706.713-11.546l.012-.29c14.455 21.6 43.351 62.19 62.478 71.9a6.032 6.032 0 0 0 5.432 0c19.116-9.706 47.931-50.256 62.361-71.87l.01.261c.194 4.84.435 8.725.714 11.546.409 4.119.917 9.245 5.7 9.68 5.041.447 6.126-5.138 6.535-7.244 1.46-7.524 11-21.969 19.742-33.891l-.941 5.559a5 5 0 0 0 8.944 3.815c.11-.147 11.316-15.081 40.053-42.614 20.871-20 23.986-45.624 23.659-60.889a126.235 126.235 0 0 1 10.841 13.945 5 5 0 0 0 9.174-2.549c.382-9.665-2.459-22.076-5.693-32.788a80.966 80.966 0 0 1 3.853 7.957 5 5 0 0 0 9.615-1.579c1.879-29.167-13.421-58.031-24.919-75.306zm-101.414-175.2c24.629-17.717 35.687-37.058 40.383-48.282 1.433 2.147 3.08 4.813 4.833 7.99-2.415 8.356-7.551 16.794-15.294 25.109a104.839 104.839 0 0 1 -17.673 15.119c-22.656 15.039-32.892 30.174-37.492 40.383-3.277-4.513-7.521-8.908-12.8-11.612 9.081-7.085 24.481-18.952 38.043-28.707zm-205.732-49.714c8.529 15.023 30.749 50.38 57.425 63.225 6.653 3.2 14.965 9.885 20.715 14.874a35.117 35.117 0 0 0 -11.966 9.937c-5.128-7.239-15.861-18.585-38.079-33.47-12.209-8.18-27.833-22.587-33.915-45.122a108.148 108.148 0 0 1 5.82-9.444zm288.554 293.264a5 5 0 0 0 -7.5 5.279c.078.385 7.557 38.81-19.508 64.741-13.126 12.576-22.635 22.53-29.186 29.759l1.242-7.333a5 5 0 0 0 -8.793-4.01c-2.313 2.814-17.89 21.953-27.221 38.324-.144-4.225-.244-8.723-.288-12.935a5 5 0 0 0 -9.24-2.6c-11.763 18.84-45.713 68.852-65.432 80.841-19.732-11.992-53.758-62-65.551-80.846a5 5 0 0 0 -9.238 2.6c-.043 4.212-.143 8.71-.287 12.935-9.331-16.371-24.908-35.51-27.221-38.324a5 5 0 0 0 -8.793 4.01l1.241 7.333c-6.55-7.229-16.059-17.183-29.186-29.759-27.065-25.931-19.586-64.356-19.509-64.732a5 5 0 0 0 -7.5-5.288c-3.947 2.407-8.025 6.328-11.619 10.35 3.064-13.973 8.764-28.6 10.7-33.378 6.25-3.371 28.393-16 42.329-32.625-3.915 16.164-3.408 31.355 1.563 44.326 4.953 12.922 14.14 23.714 27.432 32.3a4.963 4.963 0 0 0 .957 2.155c5.786 7.376 18.552 24.576 26.554 42.3 2.961 6.556 5.781 12.378 8.383 17.305a40.935 40.935 0 0 0 21.929 19.376c2.335 3.185 8.29 9.767 19.949 14.03a53.393 53.393 0 0 0 18.331 3.259 52.037 52.037 0 0 0 18.524-3.392c11.268-4.292 16.693-10.676 18.867-13.959a40.94 40.94 0 0 0 21.771-19.314c2.6-4.927 5.423-10.749 8.384-17.305 7.991-17.694 20.768-34.914 26.556-42.3a4.947 4.947 0 0 0 .956-2.157c13.291-8.586 22.478-19.377 27.431-32.3 4.971-12.971 5.478-28.162 1.563-44.326 13.936 16.629 36.079 29.254 42.329 32.625 1.935 4.774 7.635 19.4 10.7 33.378-3.594-4.015-7.672-7.936-11.619-10.343zm-242.684 30.608q6.239 2.507 13.236 4.591-.98 7.605-1.191 14.777c-3.901-7.086-8.154-13.721-12.045-19.368zm93.954 73.368c1.047.185 2.092.321 3.136.42a39.134 39.134 0 0 1 -4.9 2.262 43.179 43.179 0 0 1 -35.283-2.327c.846-.093 1.693-.2 2.54-.355a33.3 33.3 0 0 0 17.253-8.941 33.3 33.3 0 0 0 17.255 8.941zm-41.742-40.2c0-10.276 11.308-18.637 25.207-18.637s25.207 8.361 25.207 18.637-11.307 18.638-25.207 18.638-25.206-8.364-25.206-18.641zm87.949-28.574q6.991-2.088 13.236-4.591c-3.89 5.647-8.142 12.282-12.044 19.368q-.207-7.17-1.191-14.78zm122.076-55.982c-3.553-4.5-7.789-8.46-12.492-10.31-1.415-.734-34.231-17.926-46.2-38.545-14.236-24.527-42.641-37.59-57.673-37.59-21.089 0-31.961 12.326-32.345 36.626a50.573 50.573 0 0 0 -4.643 11.182 4.991 4.991 0 0 0 9.488 3.082 57.431 57.431 0 0 0 7.434.528c8.706 0 15.8-2.316 21.158-6.931 6.331-5.447 8.588-12.773 9.385-17.733a4.992 4.992 0 0 0 .028-9.819 42.889 42.889 0 0 0 -31.1 6.678c2.9-9.411 9.492-13.613 20.594-13.613 10.474 0 22.155 5.993 31.784 13.659-3.428 8.844-14.092 32.632-31.616 38.759-8.8 3.074-18.048 1.251-28.29-5.58a5 5 0 1 0 -5.548 8.32c12.85 8.57 25.345 10.823 37.139 6.7 17.921-6.267 29.36-25.908 34.962-38.2 6.013 12.727 14.471 36.747 6.071 58.661-6.986 18.227-24.4 31.714-51.795 40.14a217.128 217.128 0 0 0 -5.811-23.4 238.152 238.152 0 0 0 -14.644-37.021 5 5 0 1 0 -8.867 4.623c.3.583 30.1 58.513 20.076 105.158-.608 1.2-1.206 2.361-1.79 3.467-6.268 11.869-19.065 18.323-31.847 16.068a23.249 23.249 0 0 1 -7.831-3c14.329-3.628 24.762-14.517 24.762-27.351 0-15.79-15.794-28.637-35.207-28.637s-35.207 12.847-35.207 28.637c0 12.532 9.951 23.2 23.76 27.075a23.334 23.334 0 0 1 -8.272 3.276c-12.783 2.265-25.579-4.2-31.847-16.068-.584-1.106-1.182-2.266-1.79-3.467-10.011-46.576 19.774-104.576 20.077-105.16a5 5 0 0 0 -8.868-4.621 238.035 238.035 0 0 0 -14.644 37.021 216.892 216.892 0 0 0 -5.811 23.4c-27.37-8.419-44.779-21.89-51.777-40.093-6.248-16.253-3.033-33.671.764-45.422a111.487 111.487 0 0 1 5.286-13.291c5.6 12.291 17.041 31.938 34.965 38.205 11.793 4.121 24.289 1.869 37.139-6.7a5 5 0 1 0 -5.548-8.32c-10.235 6.824-19.482 8.651-28.27 5.587-17.568-6.129-28.289-30.15-31.676-38.891 11.252-8.641 23.936-13.534 31.827-13.534 11.1 0 17.691 4.2 20.593 13.611a42.875 42.875 0 0 0 -31.1-6.676 4.992 4.992 0 0 0 .028 9.816c.8 4.96 3.053 12.288 9.385 17.736 5.363 4.615 12.45 6.931 21.158 6.931a57.431 57.431 0 0 0 7.434-.528 4.991 4.991 0 0 0 9.488-3.082 50.6 50.6 0 0 0 -4.643-11.183c-.384-24.3-11.256-36.625-32.345-36.625-15.032 0-43.437 13.063-57.673 37.59-11.967 20.616-44.777 37.807-46.2 38.544-4.7 1.849-8.931 5.806-12.482 10.3 7.3-33.2 32.357-62.352 32.663-62.7a5 5 0 0 0 -5.868-7.824l-21.255 9.828c8.923-27.009 50.551-61.809 67.585-74.094a5 5 0 0 0 -2.035-8.977l11.305-4.191a5 5 0 0 0 1.622-8.391l-10.457-9.492 30.076 6.186a5 5 0 1 0 2.015-9.8l-47.974-9.868a5 5 0 0 0 -4.368 8.6l17.9 16.244-26.579 9.858a5 5 0 0 0 1.51 9.683l10.16.463c-5.354 4.293-12.162 10-19.3 16.613-6.449-57.785 1.5-97.536 9.6-121.1 1.414-4.117 2.88-7.887 4.347-11.322 8.224 19.744 22.8 32.816 34.543 40.683 24.5 16.414 33.771 27.905 37.015 32.981a4.986 4.986 0 0 0 .834.979 65.48 65.48 0 0 0 -4.268 9.491 5 5 0 1 0 9.478 3.19c.08-.239 8.412-23.8 22.883-23.8a4.993 4.993 0 0 0 3.469-8.591c-.3-.292-3.543-3.409-8.146-7.357a78.818 78.818 0 0 1 14.117-4.838 117.506 117.506 0 0 1 53.446-1.241 72.314 72.314 0 0 1 13.631 4.162c-6.776 5.266-11.319 8.866-11.43 8.955l.014.017a4.981 4.981 0 0 0 3.1 8.9c12.139 0 20.632 17.174 22.883 23.8a5 5 0 0 0 9.477-3.191 57.449 57.449 0 0 0 -2.192-5.365 4.95 4.95 0 0 0 .737-1.5c2.189-7.466 9.88-24.182 35.938-41.48 4.369-2.9 23.666-16.5 33.386-36.376 1.553 3.595 3.106 7.551 4.6 11.907 8.1 23.561 16.048 63.312 9.6 121.1-7.139-6.613-13.947-12.32-19.3-16.613l10.16-.463a5 5 0 0 0 1.51-9.683l-26.572-9.853 17.895-16.244a5 5 0 0 0 -4.368-8.6l-47.974 9.868a5 5 0 1 0 2.015 9.8l30.076-6.186-10.457 9.492a5 5 0 0 0 1.622 8.391l11.305 4.191a5 5 0 0 0 -2.035 8.977c17.036 12.28 58.671 47.07 67.588 74.1l-21.262-9.834a5 5 0 0 0 -5.868 7.824c.303.337 25.386 29.461 32.67 62.702zm-116.023-59.9a18.784 18.784 0 0 1 -5.773 10.367c-4.111 3.537-10.172 4.993-18.053 4.368 6.477-11.07 16.65-14.105 23.826-14.74zm-115.202 14.73c-7.841.623-13.881-.816-17.991-4.314a18.732 18.732 0 0 1 -5.833-10.421c7.175.64 17.347 3.671 23.824 14.735z" fill="url(#linear-gradient-4)" data-original="url(#linear-gradient-4)" style="" class=""/><path xmlns="http://www.w3.org/2000/svg" d="m278.392 220.391a5 5 0 0 0 -9.7-2.423c-.238.952-5.714 23.537 4.923 43.384a5 5 0 0 0 8.814-4.725c-8.744-16.311-4.121-35.887-4.037-36.236z" fill="url(#linear-gradient-5)" data-original="url(#linear-gradient-5)" style=""/><path xmlns="http://www.w3.org/2000/svg" d="m313.683 177.292a68.583 68.583 0 0 0 -10.525 1.4c-8.117 1.748-13.726 4.733-16.671 8.872a5 5 0 1 0 8.148 5.8c2.66-3.738 12.975-5.805 19.452-6.08a5 5 0 0 0 -.4-9.992z" fill="url(#linear-gradient-6)" data-original="url(#linear-gradient-6)" style=""/></g></svg>
